<?xml version="1.0" encoding="UTF-8"?>
<svg version="1.1" xmlns="http://www.w3.org/2000/svg" width="1000" height="282">
<path d="M0 0 C15.51 0 31.02 0 47 0 C47.33 18.15 47.66 36.3 48 55 C50.31 53.02 52.62 51.04 55 49 C58.1328125 47.35546875 58.1328125 47.35546875 61.125 46.1875 C62.11757813 45.78917969 63.11015625 45.39085937 64.1328125 44.98046875 C75.65403065 41.04065164 90.74501057 41.49435593 102 46 C102.84691406 46.32871094 103.69382812 46.65742188 104.56640625 46.99609375 C114.88009223 51.54671245 122.25412528 59.88417529 127 70 C135.97695113 93.25711761 136.10839063 122.02444143 126.4375 145.13671875 C124.17226023 149.64873167 121.44523431 153.32461845 118 157 C117.34257812 157.71027344 116.68515625 158.42054688 116.0078125 159.15234375 C105.57121169 169.41691268 92.55816912 171.26412012 78.59033203 171.24658203 C65.65830593 171.07509467 55.62414344 166.82529233 46.375 157.625 C45.26125 156.42875 44.1475 155.2325 43 154 C41.68 158.62 40.36 163.24 39 168 C26.13 168 13.26 168 0 168 C0 112.56 0 57.12 0 0 Z M53.3828125 82.734375 C45.18283776 92.85683186 46.06823531 105.59871246 47 118 C48.24329751 124.99820153 50.66666037 129.62286078 56.31640625 133.9765625 C61.34763527 137.03498942 67.33207896 136.40592538 73 136 C78.21056505 134.29472417 80.89835481 131.48015417 84 127 C86.49720018 120.51251842 86.36718743 114.0742824 86.375 107.1875 C86.41173828 105.50043945 86.41173828 105.50043945 86.44921875 103.77929688 C86.47598903 96.1006895 85.81517229 88.32951404 80.5168457 82.31689453 C75.29070686 77.75240474 70.5779676 77.70104018 63.94140625 77.796875 C59.25688435 78.12037452 56.5859835 79.29909016 53.3828125 82.734375 Z " fill="#DB492A" transform="translate(379,82)"/>
<path d="M0 0 C42.57 0 85.14 0 129 0 C129 12.87 129 25.74 129 39 C103.59 39 78.18 39 52 39 C52 47.58 52 56.16 52 65 C73.78 65 95.56 65 118 65 C118 77.21 118 89.42 118 102 C96.22 102 74.44 102 52 102 C52 120.81 52 139.62 52 159 C34.84 159 17.68 159 0 159 C0 106.53 0 54.06 0 0 Z " fill="#DA492A" transform="translate(101,91)"/>
<path d="M0 0 C13.50953909 11.50441269 18.75967922 24.21040754 21.125 41.6875 C21.125 47.6275 21.125 53.5675 21.125 59.6875 C-8.905 59.6875 -38.935 59.6875 -69.875 59.6875 C-68.40868733 72.36646342 -68.40868733 72.36646342 -61.5625 80.9375 C-54.63820393 85.44634395 -46.29784044 85.75867836 -38.34375 84.1875 C-33.39674823 82.73637948 -29.95548227 80.98150558 -26.875 76.6875 C-26.215 73.7175 -25.555 70.7475 -24.875 67.6875 C-9.695 67.6875 5.485 67.6875 21.125 67.6875 C21.125 79.86464573 18.38331893 89.5792859 10.2265625 98.84375 C1.18006559 107.58757601 -10.62048092 112.47794732 -22.875 114.6875 C-23.85726562 114.87054688 -24.83953125 115.05359375 -25.8515625 115.2421875 C-49.57894969 118.47818069 -76.07433401 116.37927174 -96.30859375 102.68359375 C-108.3708639 93.30182808 -114.15869212 80.47191324 -116.875 65.6875 C-117.29086908 61.07391029 -117.35248472 56.50529379 -117.3125 51.875 C-117.30114014 50.02950562 -117.30114014 50.02950562 -117.28955078 48.14672852 C-116.98900796 31.55215808 -112.72708375 17.07443909 -101.12890625 4.75 C-76.27514196 -17.99313266 -27.07020799 -19.94403358 0 0 Z M-64.8125 24.5625 C-68.28887586 28.95625282 -69.875 32.00573055 -69.875 37.6875 C-55.355 37.6875 -40.835 37.6875 -25.875 37.6875 C-27.64256948 27.62278108 -27.64256948 27.62278108 -33.875 20.6875 C-43.5299809 14.88622392 -57.21480306 16.2427079 -64.8125 24.5625 Z " fill="#DB492A" transform="translate(349.875,137.3125)"/>
<path d="M0 0 C9.97919834 8.58675206 15.80491205 18.32580842 16.8689003 31.57061958 C16.93073054 33.91471603 16.93538656 36.25113431 16.91455078 38.59594727 C16.91484283 39.47508286 16.91513489 40.35421844 16.91543579 41.25999451 C16.91405506 44.13306951 16.89855372 47.00587719 16.8828125 49.87890625 C16.87907789 51.88386392 16.87623304 53.88882342 16.87423706 55.89378357 C16.86663587 61.14626184 16.84701784 66.39862781 16.8248291 71.65106201 C16.80067822 77.96627736 16.79157295 84.28153046 16.77992249 90.59677887 C16.7605912 100.16876378 16.72224409 109.74050277 16.6875 119.3125 C1.1775 119.3125 -14.3325 119.3125 -30.3125 119.3125 C-30.34988281 113.67929688 -30.38726563 108.04609375 -30.42578125 102.2421875 C-30.45606434 98.66924048 -30.48721439 95.09634307 -30.52148438 91.5234375 C-30.57577295 85.85484334 -30.62688441 80.18634732 -30.65893555 74.51757812 C-30.68498283 69.94625443 -30.72539537 65.37526101 -30.77568626 60.804142 C-30.79234533 59.0619226 -30.80386559 57.31964609 -30.81011391 55.57735825 C-30.81976554 53.13309014 -30.84783666 50.6896651 -30.88012695 48.24560547 C-30.87869186 47.52846878 -30.87725677 46.81133209 -30.8757782 46.07246399 C-30.97689751 40.64503739 -32.34787113 36.68642656 -35.8125 32.5 C-39.87996353 29.27992471 -45.41759839 29.89949268 -50.3125 30.3125 C-55.98708978 32.23971917 -59.63300871 35.95351742 -62.3125 41.3125 C-62.43459616 43.78322509 -62.49812086 46.22767208 -62.51782227 48.69970703 C-62.52772186 49.46077759 -62.53762146 50.22184814 -62.54782104 51.00598145 C-62.57946678 53.52739324 -62.60420557 56.04882388 -62.62890625 58.5703125 C-62.64947313 60.31623836 -62.67046953 62.06215922 -62.69187927 63.80807495 C-62.74712746 68.40789742 -62.7965246 73.00776503 -62.84472656 77.60766602 C-62.90374362 83.12433318 -62.96998668 88.64091767 -63.03502655 94.15751648 C-63.13307063 102.54246059 -63.22190299 110.92745721 -63.3125 119.3125 C-78.8225 119.3125 -94.3325 119.3125 -110.3125 119.3125 C-110.3125 79.0525 -110.3125 38.7925 -110.3125 -2.6875 C-97.7725 -2.6875 -85.2325 -2.6875 -72.3125 -2.6875 C-70.92245008 2.17767472 -69.91793875 6.36808357 -69.3125 11.3125 C-66.36086427 11.3125 -65.52175714 9.72594929 -63.4375 7.6875 C-46.27031092 -7.85650935 -20.40133768 -10.39313429 0 0 Z " fill="#DB492A" transform="translate(822.3125,130.6875)"/>
<path d="M0 0 C1.18408447 0.00491455 2.36816895 0.0098291 3.58813477 0.01489258 C20.94222168 0.24694682 38.20228419 3.88073799 51.43359375 15.8984375 C58.35643645 23.25287887 59.6875 30.33568418 59.6875 40.3125 C45.4975 40.3125 31.3075 40.3125 16.6875 40.3125 C13.6875 34.3125 13.6875 34.3125 13.6875 32.3125 C4.35315854 29.09903819 -2.77006962 28.35105609 -12.3125 31.3125 C-14.52107238 33.14036272 -14.52107238 33.14036272 -14.75 35.75 C-14.58517294 38.46534246 -14.58517294 38.46534246 -12.30078125 39.85546875 C-8.64843457 41.63628615 -5.02172485 42.43191639 -1.0625 43.1875 C-0.24837646 43.35258057 0.56574707 43.51766113 1.40454102 43.68774414 C6.28611083 44.67171475 11.17871172 45.59220729 16.07421875 46.50390625 C48.60964165 52.63644048 48.60964165 52.63644048 57.5390625 64.84375 C63.83947 74.9960654 64.03033169 86.18292437 62.109375 97.8125 C59.4868846 106.96737559 54.18657552 113.78683342 45.96484375 118.60546875 C38.23621929 122.79956431 30.38583702 125.81534669 21.6875 127.3125 C20.6975 127.49425781 19.7075 127.67601562 18.6875 127.86328125 C-3.37602492 130.88761173 -29.50511735 129.49828751 -48.25 116.4375 C-55.77884992 110.57200064 -60.85677727 104.71980707 -63.3125 95.3125 C-63.6425 92.0125 -63.9725 88.7125 -64.3125 85.3125 C-49.7925 85.3125 -35.2725 85.3125 -20.3125 85.3125 C-19.3225 88.6125 -18.3325 91.9125 -17.3125 95.3125 C-14.59738952 96.99554356 -14.59738952 96.99554356 -11.3125 97.3125 C-10.24 97.68375 -9.1675 98.055 -8.0625 98.4375 C0.73538279 100.49033932 8.18387957 99.02848523 16.6875 96.3125 C16.6875 93.3425 16.6875 90.3725 16.6875 87.3125 C7.29429018 84.28040066 -2.217599 82.47685888 -11.90625 80.65039062 C-44.60673539 74.32718452 -44.60673539 74.32718452 -54.3125 63.3125 C-61.25432194 52.96287456 -62.00735228 41.06243016 -59.6640625 28.96484375 C-56.4156297 19.09460561 -49.49416015 11.98944954 -40.3125 7.3125 C-27.1243328 1.98111326 -14.21297901 -0.07004468 0 0 Z " fill="#DB492A" transform="translate(577.3125,124.6875)"/>
<path d="M0 0 C15.51 0 31.02 0 47 0 C47 40.26 47 80.52 47 122 C31.49 122 15.98 122 0 122 C0 81.74 0 41.48 0 0 Z " fill="#DB492A" transform="translate(649,128)"/>
<path d="M0 0 C16.5 0 33 0 50 0 C50 15.18 50 30.36 50 46 C33.5 46 17 46 0 46 C0 30.82 0 15.64 0 0 Z " fill="#DB492A" transform="translate(853,204)"/>
<path d="M0 0 C15.51 0 31.02 0 47 0 C47 10.56 47 21.12 47 32 C31.49 32 15.98 32 0 32 C0 21.44 0 10.88 0 0 Z " fill="#DB492A" transform="translate(649,82)"/>
<path d="M0 0 C4.53648325 3.21398305 7.5547929 7.3831287 9.3046875 12.6328125 C9.45116832 14.90044824 9.5256501 17.17313616 9.5546875 19.4453125 C9.58046875 20.64800781 9.60625 21.85070312 9.6328125 23.08984375 C9.09122656 28.9376824 6.8199093 32.65654244 2.3671875 36.3828125 C1.69816406 36.95515625 1.02914062 37.5275 0.33984375 38.1171875 C-5.83911674 42.71879339 -12.18811204 42.55503325 -19.6953125 41.6328125 C-25.98324931 39.25846136 -30.69764846 35.75304325 -33.6953125 29.6328125 C-36.55613723 21.76554449 -36.31528761 15.60914976 -33.01953125 8 C-29.87259961 2.37451159 -24.85906817 -0.95289242 -18.7890625 -2.890625 C-11.70343262 -4.50339896 -6.37919314 -3.47775327 0 0 Z M-27.1328125 9.3203125 C-30.45675194 14.23974288 -30.3793051 18.80708238 -29.6953125 24.6328125 C-27.79885421 29.77791234 -24.59347506 33.58959556 -19.65234375 36.01171875 C-14.70488261 37.58187109 -10.2678436 37.20739117 -5.4453125 35.4453125 C-1.09242867 32.57636634 2.30989929 29.50009573 4.3046875 24.6328125 C5.05384233 18.73686668 4.77820232 13.61151707 1.3046875 8.6328125 C-2.88590979 4.41873847 -6.53045625 1.88537906 -12.4453125 1.1953125 C-18.67528877 1.35803576 -23.08014075 4.85198211 -27.1328125 9.3203125 Z " fill="#DB4929" transform="translate(912.6953125,18.3671875)"/>
<path d="M0 0 C0.78503906 0.05542969 1.57007813 0.11085938 2.37890625 0.16796875 C4.4375 0.8125 4.4375 0.8125 5.71484375 2.86328125 C5.95332031 3.50652344 6.19179688 4.14976563 6.4375 4.8125 C5.7775 5.4725 5.1175 6.1325 4.4375 6.8125 C3.32375 6.626875 2.21 6.44125 1.0625 6.25 C-2.44461875 5.51623151 -2.44461875 5.51623151 -5 6.875 C-6.82750115 8.80317835 -6.82750115 8.80317835 -7 11.875 C-6.855625 12.844375 -6.71125 13.81375 -6.5625 14.8125 C-3.66709527 17.22434388 -3.66709527 17.22434388 -0.0625 16.3125 C3.4375 15.8125 3.4375 15.8125 6.4375 17.8125 C4.6875 21.6875 4.6875 21.6875 2.4375 22.8125 C-2.13251644 23.1933347 -4.70045508 23.17966728 -8.9375 21.375 C-12.49092451 17.90618084 -13.45971645 14.74611023 -13.5625 9.8125 C-12.26036853 6.1117053 -10.65859054 3.26357168 -7.5625 0.8125 C-4.59565271 -0.1764491 -3.05101928 -0.26639872 0 0 Z " fill="#DB492A" transform="translate(901.5625,26.1875)"/>
</svg>
