<?xml version="1.0" encoding="UTF-8"?>
<svg version="1.1" xmlns="http://www.w3.org/2000/svg" width="868" height="868">
<path d="M0 0 C15.84 0 31.68 0 48 0 C48.33 17.82 48.66 35.64 49 54 C51.64 52.02 54.28 50.04 57 48 C59.79296875 46.57421875 59.79296875 46.57421875 62.1875 45.6875 C62.98542969 45.38199219 63.78335938 45.07648438 64.60546875 44.76171875 C78.55179855 40.32528431 95.01473861 42.30400911 108.1875 48.125 C119.35805673 54.13163965 126.36675567 64.49207496 130.25 76.3125 C136.66750645 99.36204399 137.12912342 128.33311169 125.43359375 149.88671875 C117.98160333 161.17708938 107.74411756 168.82765437 94.47119141 171.60302734 C79.43791265 174.01797609 64.55914391 172.57524483 51.98046875 163.59375 C49.07558003 161.25608807 46.53673132 158.7318645 44 156 C42.09388295 160.35683897 41.19464835 164.2214066 40 169 C26.8 169 13.6 169 0 169 C0 113.23 0 57.46 0 0 Z M53.3125 84.625 C48.05776021 91.49811574 47.49865727 99.57410217 47.5625 107.9375 C47.54251953 108.86240234 47.52253906 109.78730469 47.50195312 110.74023438 C47.50707948 118.05554494 48.71268087 125.40475815 53.80883789 130.97827148 C59.02765077 135.69285825 63.35713608 136.30211283 70.27734375 136.2109375 C75.48349885 135.80759119 78.1296961 133.8703039 81.75 130.25 C86.65955028 123.15842738 86.33705535 115.92605064 86.3125 107.5625 C86.32861328 106.46873047 86.34472656 105.37496094 86.36132812 104.24804688 C86.36607329 96.36633446 85.53437674 90.05734807 80.625 83.625 C76.65630001 79.65630001 73.10229306 78.71107359 67.5625 78.6875 C61.28727122 78.83069314 57.84568811 80.19723487 53.3125 84.625 Z " fill="#D54729" transform="translate(317,332)"/>
<path d="M0 0 C42.9 0 85.8 0 130 0 C130 13.2 130 26.4 130 40 C104.59 40 79.18 40 53 40 C53 48.25 53 56.5 53 65 C74.78 65 96.56 65 119 65 C119 77.54 119 90.08 119 103 C97.22 103 75.44 103 53 103 C53 121.81 53 140.62 53 160 C35.51 160 18.02 160 0 160 C0 107.2 0 54.4 0 0 Z " fill="#D54829" transform="translate(39,341)"/>
<path d="M0 0 C13.50329608 11.49909629 18.77778458 24.21378518 21.125 41.6875 C21.125 47.9575 21.125 54.2275 21.125 60.6875 C-8.905 60.6875 -38.935 60.6875 -69.875 60.6875 C-68.23414222 72.66931949 -68.23414222 72.66931949 -61.5625 80.9375 C-55.23155948 85.0599729 -48.2238746 85.48278917 -40.875 84.6875 C-36.51442837 83.66759039 -32.48789683 82.44973913 -29.3984375 79.07421875 C-27.06834731 75.2941084 -26.61680034 72.13830202 -25.875 67.6875 C-10.365 67.6875 5.145 67.6875 21.125 67.6875 C21.125 80.67607764 18.1859056 90.83471714 9.453125 100.546875 C-7.29107512 116.71862383 -30.89993345 117.09238339 -52.6875 116.90234375 C-71.83557184 116.5030122 -90.46188114 111.10061886 -104.29296875 97.26953125 C-115.16731616 84.43657718 -118.46247224 68.85766385 -118.3125 52.375 C-118.30492676 51.19873047 -118.29735352 50.02246094 -118.28955078 48.81054688 C-117.98308019 32.55194662 -114.2281808 17.73564783 -102.84375 5.52734375 C-77.72904141 -17.9429494 -27.61937244 -20.34863166 0 0 Z M-66.5 27.69140625 C-68.84559027 31.09651031 -69.875 33.56066915 -69.875 37.6875 C-56.015 37.6875 -42.155 37.6875 -27.875 37.6875 C-28.78277893 27.91435715 -28.78277893 27.91435715 -34.875 21.6875 C-45.730121 15.27932983 -58.86818538 18.06330679 -66.5 27.69140625 Z " fill="#D34729" transform="translate(288.875,387.3125)"/>
<path d="M0 0 C10.45488853 8.99606687 15.81643858 18.85827646 16.86563492 32.6549263 C16.93012284 35.00895434 16.93556866 37.3546756 16.91455078 39.70947266 C16.91484283 40.58875427 16.91513489 41.46803589 16.91543579 42.3739624 C16.91405734 45.24160092 16.89856709 48.10897013 16.8828125 50.9765625 C16.87907708 52.98009092 16.87623261 54.98362119 16.87423706 56.9871521 C16.86664229 62.23139592 16.84702995 67.47552695 16.8248291 72.71972656 C16.80066063 79.02745738 16.79156989 85.33522614 16.77992249 91.64299011 C16.7606028 101.19957157 16.72225125 110.75590613 16.6875 120.3125 C0.8475 120.3125 -14.9925 120.3125 -31.3125 120.3125 C-31.34988281 114.67929687 -31.38726563 109.04609375 -31.42578125 103.2421875 C-31.45606434 99.66924048 -31.48721439 96.09634307 -31.52148438 92.5234375 C-31.57577295 86.85484334 -31.62688441 81.18634732 -31.65893555 75.51757812 C-31.68498283 70.94625443 -31.72539537 66.37526101 -31.77568626 61.804142 C-31.79234533 60.0619226 -31.80386559 58.31964609 -31.81011391 56.57735825 C-31.81976554 54.13309014 -31.84783666 51.6896651 -31.88012695 49.24560547 C-31.87869186 48.52846878 -31.87725677 47.81133209 -31.8757782 47.07246399 C-31.97689751 41.64503739 -33.34787113 37.68642656 -36.8125 33.5 C-40.66769349 30.44797182 -45.66341079 30.8818811 -50.3125 31.3125 C-55.98726113 33.27684039 -59.62650331 36.94050662 -62.3125 42.3125 C-62.43459616 44.78322509 -62.49812086 47.22767208 -62.51782227 49.69970703 C-62.52772186 50.46077759 -62.53762146 51.22184814 -62.54782104 52.00598145 C-62.57946678 54.52739324 -62.60420557 57.04882388 -62.62890625 59.5703125 C-62.64947313 61.31623836 -62.67046953 63.06215922 -62.69187927 64.80807495 C-62.74712746 69.40789742 -62.7965246 74.00776503 -62.84472656 78.60766602 C-62.90374362 84.12433318 -62.96998668 89.64091767 -63.03502655 95.15751648 C-63.13307063 103.54246059 -63.22190299 111.92745721 -63.3125 120.3125 C-79.1525 120.3125 -94.9925 120.3125 -111.3125 120.3125 C-111.3125 79.7225 -111.3125 39.1325 -111.3125 -2.6875 C-98.4425 -2.6875 -85.5725 -2.6875 -72.3125 -2.6875 C-70.42775997 -0.80275997 -70.61918 2.33996402 -70.25 4.875 C-70.07339844 6.07253906 -69.89679687 7.27007812 -69.71484375 8.50390625 C-69.51568359 9.89416016 -69.51568359 9.89416016 -69.3125 11.3125 C-68.83941406 10.94898438 -68.36632812 10.58546875 -67.87890625 10.2109375 C-65.70451536 8.5578918 -63.51253663 6.93125605 -61.3125 5.3125 C-60.60351562 4.7865625 -59.89453125 4.260625 -59.1640625 3.71875 C-42.06199672 -8.3823507 -18.53532548 -9.4425243 0 0 Z " fill="#D44729" transform="translate(761.3125,380.6875)"/>
<path d="M0 0 C1.23105469 0.00491455 2.46210937 0.0098291 3.73046875 0.01489258 C21.2251981 0.24028054 38.57835838 3.76817897 51.93359375 15.8984375 C59.19796241 23.61569697 60.1875 30.81419868 60.1875 41.3125 C45.6675 41.3125 31.1475 41.3125 16.1875 41.3125 C15.1975 39.0025 14.2075 36.6925 13.1875 34.3125 C7.65732318 30.7825999 3.14081995 30.11846422 -3.3125 30.5625 C-4.99859375 30.66304688 -4.99859375 30.66304688 -6.71875 30.765625 C-10.04381262 31.3533886 -11.59238773 31.76590064 -13.8125 34.3125 C-14.14647787 37.43836875 -14.14647787 37.43836875 -13.8125 40.3125 C-4.95442159 42.39154961 3.88775747 44.30656407 12.87060547 45.77026367 C40.86197276 50.33483104 40.86197276 50.33483104 51.1875 58.3125 C52.239375 59.055 53.29125 59.7975 54.375 60.5625 C60.86157521 66.9049291 63.27560447 73.94919573 63.48071289 82.81079102 C63.57800158 95.42999633 62.28392412 105.56968852 53.0625 114.98828125 C43.86071349 122.4272255 32.78941627 126.46291914 21.1875 128.3125 C19.68896484 128.58513672 19.68896484 128.58513672 18.16015625 128.86328125 C2.84868453 130.59466694 -13.96295395 130.74832594 -28.8125 126.3125 C-29.79734375 126.02246094 -30.7821875 125.73242188 -31.796875 125.43359375 C-44.32523559 121.29785041 -55.65041269 114.2258688 -61.8125 102.3125 C-64.39715228 96.49703237 -64.18754344 92.18702217 -64.8125 85.3125 C-49.9625 85.3125 -35.1125 85.3125 -19.8125 85.3125 C-18.8225 88.6125 -17.8325 91.9125 -16.8125 95.3125 C-14.66758689 97.00437191 -14.66758689 97.00437191 -11.8125 97.3125 C-10.575 97.68375 -9.3375 98.055 -8.0625 98.4375 C0.30545453 100.39629085 7.15766537 99.12880943 15.1875 96.3125 C15.5175 94.0025 15.8475 91.6925 16.1875 89.3125 C10.62355454 86.00472487 4.87648622 85.08884582 -1.4375 83.9375 C-9.60543214 82.3713826 -17.73502265 80.73484026 -25.8125 78.75 C-26.59318848 78.56453613 -27.37387695 78.37907227 -28.17822266 78.18798828 C-41.24575242 74.90910303 -51.54787104 68.86198616 -58.796875 57.27734375 C-62.86601037 49.40513186 -61.76578556 37.33160591 -60.1640625 28.8984375 C-56.92501707 19.07056461 -49.94899039 11.96644099 -40.8125 7.3125 C-27.44166683 1.90726957 -14.40563276 -0.06811874 0 0 Z " fill="#D34729" transform="translate(515.8125,374.6875)"/>
<path d="M0 0 C15.84 0 31.68 0 48 0 C48 40.59 48 81.18 48 123 C32.16 123 16.32 123 0 123 C0 82.41 0 41.82 0 0 Z " fill="#D44729" transform="translate(587,378)"/>
<path d="M0 0 C16.83 0 33.66 0 51 0 C51 15.51 51 31.02 51 47 C34.17 47 17.34 47 0 47 C0 31.49 0 15.98 0 0 Z " fill="#D24629" transform="translate(791,454)"/>
<path d="M0 0 C15.84 0 31.68 0 48 0 C48 10.89 48 21.78 48 33 C32.16 33 16.32 33 0 33 C0 22.11 0 11.22 0 0 Z " fill="#D04628" transform="translate(587,332)"/>
<path d="M0 0 C4.50334071 3.23992499 7.52260466 7.39203273 9.26953125 12.6328125 C9.41656189 15.06730068 9.49058464 17.5065602 9.51953125 19.9453125 C9.5453125 21.24082031 9.57109375 22.53632813 9.59765625 23.87109375 C9.16360053 28.84723256 7.76381088 32.02500443 4.3671875 35.6796875 C3.69558594 36.24171875 3.02398438 36.80375 2.33203125 37.3828125 C1.66300781 37.95515625 0.99398437 38.5275 0.3046875 39.1171875 C-6.0839914 43.87497524 -13.07845548 43.51842622 -20.73046875 42.6328125 C-27.01944093 40.30949794 -31.78869368 36.76151057 -34.73046875 30.6328125 C-37.53075848 22.67152367 -37.42470643 15.7806051 -34.0546875 8 C-30.92979601 2.41391078 -25.92411539 -0.96083809 -19.890625 -2.890625 C-12.49831201 -4.52147886 -6.63685768 -3.65811053 0 0 Z M-27.16796875 10.3203125 C-30.3299723 15.00007775 -30.4372068 19.0763892 -29.73046875 24.6328125 C-28.02572038 29.12784408 -25.44364582 32.49211607 -21.41796875 35.1328125 C-16.00564539 37.33443556 -12.15260713 37.53517778 -6.54296875 35.4453125 C-2.13028704 32.60158429 1.23840011 29.51655449 3.26953125 24.6328125 C4.05543738 19.01919729 3.51187393 14.38824843 0.26953125 9.6328125 C-3.68678139 5.64325353 -7.3872598 2.94824447 -12.98046875 2.1953125 C-19.07159188 2.90594353 -23.09848828 5.83344942 -27.16796875 10.3203125 Z " fill="#B23B22" transform="translate(851.73046875,268.3671875)"/>
<path d="M0 0 C2.9375 1.5 2.9375 1.5 5 3 C4.67 4.32 4.34 5.64 4 7 C0.71303767 7.79953138 -0.71023192 8.09658936 -4 7 C-6.2890789 8.02901574 -6.2890789 8.02901574 -8 10 C-8.58350505 12.54290625 -8.58350505 12.54290625 -8 15 C-5.10459527 17.41184388 -5.10459527 17.41184388 -1.5 16.5 C2 16 2 16 5 18 C4.6875 19.875 4.6875 19.875 4 22 C-0.05200342 24.70133561 -3.24304 24.64941433 -8 24 C-11.8363577 22.18644909 -13.50641782 20.96570427 -15.4375 17.1875 C-16.20728458 12.8253874 -16.32923664 9.14021496 -13.91796875 5.2578125 C-9.81514743 0.07660612 -6.41017597 -0.4420811 0 0 Z " fill="#AC3921" transform="translate(842,276)"/>
<path d="M0 0 C-1.38188453 3.21043882 -2.92421903 5.04936365 -5.625 7.25 C-6.57246094 8.03117187 -6.57246094 8.03117187 -7.5390625 8.828125 C-8.02117187 9.21484375 -8.50328125 9.6015625 -9 10 C-9 7 -9 7 -7.5390625 5.17578125 C-6.90742188 4.56089844 -6.27578125 3.94601562 -5.625 3.3125 C-4.68527344 2.37857422 -4.68527344 2.37857422 -3.7265625 1.42578125 C-2 0 -2 0 0 0 Z " fill="#91301A" transform="translate(470,386)"/>
<path d="M0 0 C0.66 0.33 1.32 0.66 2 1 C1.07347299 2.17539996 0.13336613 3.34010577 -0.8125 4.5 C-1.33457031 5.1496875 -1.85664062 5.799375 -2.39453125 6.46875 C-4 8 -4 8 -7 8 C-5.61918777 3.8575633 -3.40174442 2.67796901 0 0 Z " fill="#8C2E17" transform="translate(698,387)"/>
<path d="M0 0 C-1.39332574 3.36720387 -2.9789286 4.9859524 -6 7 C-5.37162381 3.35541809 -4.14650034 0 0 0 Z " fill="#9A321D" transform="translate(826,269)"/>
</svg>
